<?xml version="1.0" encoding="UTF-8"?>
<!DOCTYPE svg PUBLIC "-//W3C//DTD SVG 1.1//EN" "http://www.w3.org/Graphics/SVG/1.1/DTD/svg11.dtd">
<!-- Creator: CorelDRAW 2019 (64-Bit) -->
<svg xmlns="http://www.w3.org/2000/svg" xml:space="preserve" width="2.42105in" height="0.260831in" version="1.1" style="shape-rendering:geometricPrecision; text-rendering:geometricPrecision; image-rendering:optimizeQuality; fill-rule:evenodd; clip-rule:evenodd"
viewBox="0 0 592.65 63.85"
 xmlns:xlink="http://www.w3.org/1999/xlink"
 xmlns:xodm="http://www.corel.com/coreldraw/odm/2003">
 <defs>
  <style type="text/css">
   <![CDATA[
    .fil0 {fill:#FEFEFE}
    .fil1 {fill:#FEFEFE;fill-rule:nonzero}
   ]]>
  </style>
 </defs>
 <g id="Layer_x0020_1">
  <metadata id="CorelCorpID_0Corel-Layer"/>
  <g id="_2190895477984">
   <g>
    <path class="fil0" d="M512.27 63.75l2.73 0 41.99 0c6.16,0 10.86,-1.95 14.1,-4.97 3.71,-3.44 5.56,-8.28 5.56,-13.18 0,-4.81 -1.86,-9.65 -5.59,-13.09 -3.25,-3 -7.94,-4.96 -14.07,-4.96l-21.51 0c-2.6,0 -4.64,-0.92 -6.09,-2.33 -1.65,-1.61 -2.5,-3.84 -2.5,-6.07 0,-2.23 0.84,-4.43 2.49,-6.01 1.45,-1.39 3.49,-2.29 6.1,-2.29l39.87 0 0 -10.7 -43.66 0c-6.15,0 -10.85,1.95 -14.1,4.95 -3.71,3.43 -5.57,8.25 -5.57,13.11 0,4.86 1.86,9.71 5.59,13.17 3.25,3.01 7.94,4.97 14.08,4.97l21.52 0c2.59,0 4.63,0.91 6.07,2.3 1.66,1.6 2.51,3.82 2.51,6.01 0,2.22 -0.84,4.46 -2.5,6.07 -1.45,1.41 -3.49,2.33 -6.09,2.33l-38.21 0 0 -0 -11.61 0c-1.3,0 -2.74,-0.36 -4.27,-1.18 -1.33,-0.71 -2.73,-1.76 -4.19,-3.21 -0.55,-1.06 -13.24,-13.41 -15.49,-15.68l0.98 -0.97c0.44,-0.43 0.87,-0.89 1.32,-1.39 0.46,-0.5 0.89,-1.01 1.35,-1.56l0.01 -0 24.68 -28.91 -17.44 0 -21.21 23.44c-1.17,1.27 -2.42,2.22 -3.67,2.87 -1.39,0.72 -2.78,1.08 -4.08,1.08l-4.88 0 0 -27.39 -14.68 0 0 63.59 14.68 0 0 -25.51 10.7 0 15.18 16.17c2.67,2.76 5.08,5.13 7.92,6.77 2.78,1.61 6.05,2.56 10.52,2.56l11.43 0zm-437.41 0l0 -63.59 -14.68 0 0 52.9 -3.66 0c-1.48,0 -2.76,-0.32 -3.91,-1.01 -1.12,-0.66 -2.09,-1.65 -3.01,-3.01l-32.31 -48.88 -17.3 0 37.19 54.05c2.15,3.13 4.64,5.52 7.67,7.12 3.03,1.6 6.64,2.42 11.01,2.42l19 0zm68.48 -63.59l-61.22 0 0 43.74c0,6.71 1.77,11.68 5.33,14.94 3.59,3.29 9.09,4.92 16.51,4.92l39.38 0 0 -10.7 -35.59 0c-3.68,0 -6.38,-0.86 -8.21,-2.57 -1.86,-1.74 -2.74,-4.25 -2.74,-7.54l0 -6.79 46.55 0 0 -9.37 -46.55 0 0 -15.95 46.55 0 0 -10.7zm68.48 0l-61.22 0 0 43.74c0,6.71 1.77,11.68 5.33,14.94 3.59,3.29 9.09,4.92 16.51,4.92l39.38 0 0 -10.7 -35.59 0c-3.68,0 -6.39,-0.86 -8.21,-2.57 -1.86,-1.74 -2.74,-4.25 -2.74,-7.54l0 -6.79 46.55 0 0 -9.37 -46.55 0 0 -15.95 46.55 0 0 -10.7zm21.93 63.59l0 -52.9 21.39 0c4.85,0 8.53,1.33 11.03,4.01 2.48,2.65 3.72,6.54 3.72,11.69l0 37.2 14.68 0 0 -37.29c0,-8.84 -2.34,-15.43 -7.01,-19.76 -4.7,-4.36 -11.83,-6.54 -21.37,-6.54l-37.11 0 0 63.59 14.68 0zm100.02 -63.69l-11.31 0c-8.73,0 -16.67,3.57 -22.43,9.33 -5.76,5.76 -9.33,13.7 -9.33,22.43l0 0.27c0,8.73 3.57,16.67 9.33,22.43 5.76,5.76 13.7,9.33 22.43,9.33l11.31 0c8.73,0 16.67,-3.57 22.43,-9.33 5.76,-5.76 9.33,-13.7 9.33,-22.43l0 -0.27c0,-8.73 -3.57,-16.67 -9.33,-22.43 -5.76,-5.76 -13.7,-9.33 -22.43,-9.33zm-8.27 10.78l5.23 0c5.81,0 11.09,2.38 14.91,6.2 3.83,3.83 6.2,9.11 6.2,14.91 0,5.81 -2.38,11.09 -6.2,14.91 -3.83,3.83 -9.11,6.2 -14.91,6.2l-5.23 0c-5.81,0 -11.09,-2.38 -14.91,-6.2 -3.83,-3.83 -6.2,-9.11 -6.2,-14.91 0,-5.81 2.38,-11.09 6.2,-14.91 3.83,-3.83 9.11,-6.2 14.91,-6.2zm56.09 -1.93c-6.61,6.04 -9.92,14.53 -9.92,23.08 0,8.47 3.33,16.99 9.97,23.06 5.78,5.28 14.09,8.73 24.94,8.73l28.01 0 0 -10.69 -26.1 0c-6.79,0 -12,-2.28 -15.64,-5.78 -4.23,-4.06 -6.32,-9.72 -6.32,-15.33 0,-5.68 2.07,-11.32 6.27,-15.35 3.64,-3.49 8.87,-5.76 15.69,-5.76l26.1 0 0 -10.69 -28.01 0c-10.88,0 -19.21,3.43 -24.99,8.72z"/>
   </g>
   <polygon class="fil1" points="578.97,0 578.97,1.25 580.93,1.25 580.93,6.8 582.39,6.8 582.39,1.25 584.35,1.25 584.35,0 "/>
   <polygon id="1" class="fil1" points="585.15,0 585.15,6.8 586.54,6.8 586.54,2.24 588.31,6.8 589.49,6.8 591.26,2.24 591.26,6.8 592.65,6.8 592.65,0 590.77,0 588.95,5 587.06,0 "/>
  </g>
 </g>
</svg>
