<?xml version="1.0" encoding="UTF-8"?>
<!DOCTYPE svg PUBLIC "-//W3C//DTD SVG 1.1//EN" "http://www.w3.org/Graphics/SVG/1.1/DTD/svg11.dtd">
<!-- Creator: CorelDRAW 2019 (64-Bit) -->
<svg xmlns="http://www.w3.org/2000/svg" xml:space="preserve" width="0.743087in" height="0.743087in" version="1.1" style="shape-rendering:geometricPrecision; text-rendering:geometricPrecision; image-rendering:optimizeQuality; fill-rule:evenodd; clip-rule:evenodd"
viewBox="0 0 150.68 150.68"
 xmlns:xlink="http://www.w3.org/1999/xlink"
 xmlns:xodm="http://www.corel.com/coreldraw/odm/2003">
 <defs>
  <style type="text/css">
   <![CDATA[
    .fil0 {fill:#9C301A}
   ]]>
  </style>
 </defs>
 <g id="Layer_x0020_1">
  <metadata id="CorelCorpID_0Corel-Layer"/>
  <path class="fil0" d="M23.84 17.1l11.87 11.87 -6.3 6.3 -11.87 -11.87 6.3 -6.3zm-17.16 -17.1l10.7 0 9.67 9.67 5.29 -5.29 -4.39 -4.39 12.97 0 -1 1 11.89 11.89 4.41 -4.41 -8.48 -8.48 10.98 0 2.99 2.99 2.99 -2.99 12.05 0 7.96 7.96 2.64 -2.64 -5.32 -5.32 68.64 0 0 68.64 -5.28 -5.28 -2.64 2.64 7.92 7.93 0 12.12 -2.95 2.95 2.95 2.95 0 10.98 -8.44 -8.44 -4.41 4.41 11.89 11.89 0.96 -0.96 0 12.9 -4.35 -4.35 -5.29 5.29 9.64 9.64 0 10.98 -1.14 -1.14 -6.17 6.17 1.37 1.37 -10.98 0 -9.87 -9.87 -7.05 7.05 2.82 2.82 -10.98 0 -11.32 -11.32 -7.93 7.93 3.39 3.39 -10.98 0 -11.89 -11.89 -8.81 8.81 3.07 3.07 -10.98 0 -11.57 -11.57 -10.03 10.03 1.54 1.54 -10.98 0 -10.04 -10.04 -10.04 10.04 -2.13 0 0 -2.06 10.08 -10.08 -10.08 -10.08 0 -10.98 1.58 1.58 10.03 -10.03 -11.61 -11.61 0 -10.98 3.11 3.11 8.81 -8.81 -11.89 -11.89 -0.03 0.03 0 -11.04 3.42 3.42 7.93 -7.93 -11.35 -11.36 0 -10.98 2.86 2.86 7.05 -7.05 -9.91 -9.91 0 -10.99 1.42 1.42 6.3 -6.3 -1.05 -1.05zm3.18 3.16l11.88 11.87 -6.3 6.3 -11.87 -11.88 6.3 -6.3zm121.57 46.22l11.89 11.89 -2.64 2.64 -11.89 -11.89 2.64 -2.64zm-13.99 -13.99l11.89 11.89 -2.64 2.64 -11.89 -11.89 2.64 -2.64zm-13.99 -13.99l11.89 11.89 -2.64 2.64 -11.89 -11.89 2.64 -2.64zm-13.99 -13.99l11.89 11.89 -2.64 2.64 -11.89 -11.89 2.64 -2.64zm47.81 64.08l11.89 11.89 -3.53 3.53 -11.89 -11.89 3.53 -3.53zm-13.99 -13.99l11.89 11.89 -3.53 3.53 -11.89 -11.89 3.53 -3.53zm-13.99 -13.99l11.89 11.89 -3.53 3.53 -11.89 -11.89 3.53 -3.53zm-13.99 -13.99l11.89 11.89 -3.53 3.53 -11.89 -11.89 3.53 -3.53zm-13.99 -13.99l11.89 11.89 -3.53 3.53 -11.89 -11.89 3.53 -3.53zm-13.99 -13.99l11.89 11.89 -3.53 3.53 -11.89 -11.89 3.53 -3.53zm60.92 78.95l11.89 11.89 -4.41 4.41 -11.89 -11.89 4.41 -4.41zm-13.99 -13.99l11.89 11.89 -4.41 4.41 -11.89 -11.89 4.41 -4.41zm-13.99 -13.99l11.89 11.89 -4.41 4.41 -11.89 -11.89 4.41 -4.41zm-13.99 -13.99l11.89 11.89 -4.41 4.41 -11.89 -11.89 4.41 -4.41zm-13.99 -13.99l11.89 11.89 -4.41 4.41 -11.89 -11.89 4.41 -4.41zm-13.99 -13.99l11.89 11.89 -4.41 4.41 -11.89 -11.89 4.41 -4.41zm74.03 93.81l11.89 11.89 -5.29 5.29 -11.89 -11.89 5.29 -5.29zm-13.99 -13.99l11.89 11.89 -5.29 5.29 -11.89 -11.89 5.29 -5.29zm-13.99 -13.99l11.89 11.89 -5.29 5.29 -11.89 -11.89 5.29 -5.29zm-13.99 -13.99l11.89 11.89 -5.29 5.29 -11.89 -11.89 5.29 -5.29zm-13.99 -13.99l11.89 11.89 -5.29 5.29 -11.89 -11.89 5.29 -5.29zm-13.99 -13.99l11.89 11.89 -5.29 5.29 -11.89 -11.89 5.29 -5.29zm-13.99 -13.99l11.89 11.89 -5.29 5.29 -11.89 -11.89 5.29 -5.29zm-13.99 -13.99l11.89 11.89 -5.29 5.29 -11.89 -11.89 5.29 -5.29zm101.12 122.67l11.89 11.89 -6.17 6.17 -11.89 -11.89 6.17 -6.17zm-13.99 -13.99l11.89 11.89 -6.17 6.17 -11.89 -11.89 6.17 -6.17zm-13.99 -13.99l11.89 11.89 -6.17 6.17 -11.89 -11.89 6.17 -6.17zm-13.99 -13.99l11.89 11.89 -6.17 6.17 -11.89 -11.89 6.17 -6.17zm-13.99 -13.99l11.89 11.89 -6.17 6.17 -11.89 -11.89 6.17 -6.17zm-13.99 -13.99l11.89 11.89 -6.17 6.17 -11.89 -11.89 6.17 -6.17zm-13.99 -13.99l11.89 11.89 -6.17 6.17 -11.89 -11.89 6.17 -6.17zm-13.99 -13.99l11.89 11.89 -6.17 6.17 -11.89 -11.89 6.17 -6.17zm72.26 95.58l11.89 11.89 -7.05 7.05 -11.89 -11.89 7.05 -7.05zm-13.99 -13.99l11.89 11.89 -7.05 7.05 -11.89 -11.89 7.05 -7.05zm-13.99 -13.99l11.89 11.89 -7.05 7.05 -11.89 -11.89 7.05 -7.05zm-13.99 -13.99l11.89 11.89 -7.05 7.05 -11.89 -11.89 7.05 -7.05zm-13.99 -13.99l11.89 11.89 -7.05 7.05 -11.89 -11.89 7.05 -7.05zm-13.99 -13.99l11.89 11.89 -7.05 7.05 -11.89 -11.89 7.05 -7.05zm-13.99 -13.99l11.89 11.89 -7.05 7.05 -11.89 -11.89 7.05 -7.05zm-13.99 -13.99l11.89 11.89 -7.05 7.05 -11.89 -11.89 7.05 -7.05zm71.38 96.46l11.89 11.89 -7.93 7.93 -11.89 -11.89 7.93 -7.93zm-13.99 -13.99l11.89 11.89 -7.93 7.93 -11.89 -11.89 7.93 -7.93zm-13.99 -13.99l11.89 11.89 -7.93 7.93 -11.89 -11.89 7.93 -7.93zm-13.99 -13.99l11.89 11.89 -7.93 7.93 -11.89 -11.89 7.93 -7.93zm-13.99 -13.99l11.89 11.89 -7.93 7.93 -11.89 -11.89 7.93 -7.93zm-13.99 -13.99l11.89 11.89 -7.93 7.93 -11.89 -11.89 7.93 -7.93zm42.53 69.37l11.89 11.89 -8.81 8.81 -11.89 -11.89 8.81 -8.81zm-13.99 -13.99l11.89 11.89 -8.81 8.81 -11.89 -11.89 8.81 -8.81zm-13.99 -13.99l11.89 11.89 -8.81 8.81 -11.89 -11.89 8.81 -8.81zm-13.99 -13.99l11.89 11.89 -8.81 8.81 -11.89 -11.89 8.81 -8.81zm13.67 42.28l11.89 11.89 -10.03 10.03 -11.89 -11.89 10.03 -10.03zm-13.99 -13.99l11.89 11.89 -10.03 10.03 -11.89 -11.89 10.03 -10.03z"/>
 </g>
</svg>
